<?xml version="1.0" encoding="UTF-8"?>
<svg id="Layer_1" xmlns="http://www.w3.org/2000/svg" version="1.1" viewBox="0 0 491.4 97.8">
  <!-- Generator: Adobe Illustrator 30.6.0, SVG Export Plug-In . SVG Version: 2.1.4 Build 109)  -->
  <defs>
    <style>
      .st0 {
        fill: #193259;
      }

      .st1 {
        fill: #051a34;
      }

      .st2 {
        fill: #36b286;
      }
    </style>
  </defs>
  <g>
    <polygon class="st0" points="73.5 91.9 51.6 90.7 67 5.5 89 6.7 73.5 91.9"/>
    <path class="st1" d="M140.5,29.6l-3.3,18.1-35.8-1.9-30,52.1-9.9-3.2-10.1-3.3,16.1-28,8.8-15.2c7.3-12.6,23.4-20.6,39.8-19.7l24.3,1.3Z"/>
    <path class="st2" d="M89.1,6.5l-16.3,28.3-8.6,14.9c-7.3,12.6-23.4,20.6-39.8,19.7l-24.4-1.3,3.3-18.1,35.9,1.9L69.1,0l19.9,6.5Z"/>
  </g>
  <g>
    <path class="st0" d="M180,71.6c-1.6.6-3.3,1.1-5.1,1.3-1.8.3-3.9.4-6.3.4s-5.8-.3-7.8-1c-2-.7-3.6-1.8-4.8-3.5-1.2-1.6-2-3.8-2.5-6.6-.5-2.8-.7-6.3-.7-10.5s.3-7.8.8-10.6c.5-2.8,1.4-5,2.6-6.6,1.2-1.6,2.9-2.7,5-3.4,2.2-.7,4.9-1,8.2-1s2.1,0,3.4.2c1.3.1,2.5.3,3.7.5,1.2.2,2.2.5,2.9.8l-1.1,6.6c-1-.3-2.1-.5-3.4-.7-1.3-.2-2.5-.3-3.6-.4-1.1-.1-2.1-.2-2.8-.2-2.5,0-4.3.3-5.4.9-1.1.6-1.6,2-1.6,4v23.8c1.1.3,2.3.5,3.5.6,1.2.2,2.5.2,3.8.2s3.6-.2,5.4-.5c1.8-.3,3.5-.7,5.1-1.2l.7,6.7Z"/>
    <path class="st0" d="M190.8,66.4c.4,0,.9.2,1.5.2.5,0,1.1.1,1.6.2l-.5,5.5c-1,.3-1.9.5-2.7.6-.8.1-1.6.2-2.3.2-1.9,0-3.4-.5-4.3-1.4-.9-.9-1.4-2.3-1.4-4.1V29.4l8.1-1v37.9Z"/>
    <path class="st0" d="M205.7,73.1c-3.7,0-6.4-.8-8-2.4-1.6-1.6-2.4-4.2-2.4-7.8s.2-4.1.7-5.4c.5-1.4,1.4-2.5,2.7-3.2,1.3-.7,3.2-1.3,5.7-1.6,2.5-.3,5.7-.4,9.6-.4h3.2v4.8h-9.4c-2,0-3.3.3-4.1.8-.7.5-1.1,1.5-1.1,2.9v6.4h7.5c2,0,3.3-.2,4.1-.7.7-.5,1.1-1.4,1.1-2.8v-18.1c-1.4-.4-3.4-.7-5.9-.7s-3.7.1-5.6.4c-2,.3-3.9.7-6,1.3l-1.1-5.8c1.2-.4,2.6-.8,4.1-1.1s3.1-.5,4.8-.7c1.7-.2,3.3-.2,4.9-.2,3.1,0,5.6.3,7.5,1,1.9.6,3.3,1.7,4.1,3.1.8,1.4,1.3,3.3,1.3,5.7v24h-3.9l-2.1-3.3c-1.6,1.4-3.3,2.4-5.2,3-1.9.7-4.1,1-6.4,1Z"/>
    <path class="st0" d="M233.9,34.2c-1.8,0-3.1-.3-3.8-1-.7-.6-1-1.9-1-3.7s.3-3.1,1-3.8c.7-.7,1.9-1,3.8-1s3,.3,3.7,1c.7.7,1,1.9,1,3.8s-.3,3-1,3.7c-.6.6-1.9,1-3.7,1ZM229.8,40.1l8.1-1.1v33.4h-8.1v-32.3Z"/>
    <path class="st0" d="M244.7,72.3v-33h3.8l2.2,3.3c1.6-1.4,3.4-2.4,5.3-3,1.9-.7,4.1-1,6.5-1s5.4.5,7.1,1.6c1.6,1,2.4,2.5,2.4,4.5v27.7h-8.1v-27.1h-6.2c-1.8,0-3.1.2-3.8.7s-1.1,1.4-1.1,2.7v23.7h-8.1ZM263.9,72.3v-33l5.9,3.3c1.6-1.4,3.4-2.4,5.3-3,1.9-.7,4.1-1,6.5-1s5.4.5,7.1,1.6c1.6,1,2.4,2.5,2.4,4.5v27.7h-8.1v-27.1h-6.2c-1.8,0-3.1.2-3.8.7-.7.5-1.1,1.4-1.1,2.7v23.7h-8.1Z"/>
    <path class="st0" d="M295.9,51.7c0-4.4.3-8,.8-10.8.5-2.8,1.4-5,2.6-6.6s3-2.7,5.3-3.3c2.3-.6,5.2-.9,8.7-.9s6.4.3,8.6.9c2.3.6,4.1,1.7,5.3,3.3,1.3,1.6,2.1,3.8,2.7,6.6.5,2.8.8,6.4.8,10.8s-.3,8-.8,10.8c-.5,2.8-1.4,5-2.7,6.6-1.3,1.6-3,2.7-5.3,3.3-2.3.6-5.2.9-8.6.9s-6.5-.3-8.7-.9c-2.3-.6-4-1.7-5.3-3.3s-2.1-3.8-2.6-6.6c-.5-2.8-.8-6.4-.8-10.8ZM304.6,66.4h11.8c2.1,0,3.6-.3,4.4-1,.8-.7,1.2-1.8,1.2-3.5v-24.9h-11.9c-2.1,0-3.5.3-4.3,1s-1.2,1.8-1.2,3.5v24.9Z"/>
    <path class="st0" d="M335.9,72.3v-33h3.8l2.2,3.3c1.7-1.4,3.6-2.4,5.6-3,2-.7,4.3-1,6.9-1s5.4.5,7.1,1.6c1.6,1,2.4,2.5,2.4,4.5v27.7h-8.1v-27.1h-6.9c-1.8,0-3.1.2-3.8.7s-1.1,1.4-1.1,2.7v23.7h-8.1Z"/>
    <path class="st2" d="M384.3,37.8v34.5h-8.1v-34.5h-10.5v-6.7h29.1v6.7h-10.5Z"/>
    <path class="st2" d="M401.2,34.2c-1.8,0-3.1-.3-3.8-1-.7-.6-1-1.9-1-3.7s.3-3.1,1-3.8,1.9-1,3.8-1,3,.3,3.7,1,1,1.9,1,3.8-.3,3-1,3.7-1.9,1-3.7,1ZM397.1,40.1l8.1-1.1v33.4h-8.1v-32.3Z"/>
    <path class="st2" d="M411.9,72.3v-33h3.8l2.2,3.3c1.6-1.4,3.4-2.4,5.3-3,1.9-.7,4.1-1,6.5-1s5.4.5,7.1,1.6c1.6,1,2.4,2.5,2.4,4.5v27.7h-8.1v-27.1h-6.2c-1.8,0-3.1.2-3.8.7s-1.1,1.4-1.1,2.7v23.7h-8.1ZM431.1,72.3v-33l5.9,3.3c1.6-1.4,3.4-2.4,5.3-3,1.9-.7,4.1-1,6.5-1s5.4.5,7.1,1.6c1.6,1,2.4,2.5,2.4,4.5v27.7h-8.1v-27.1h-6.2c-1.8,0-3.1.2-3.8.7-.7.5-1.1,1.4-1.1,2.7v23.7h-8.1Z"/>
    <path class="st2" d="M476.7,73.1c-2.6,0-4.8-.3-6.6-.9-1.8-.6-3.2-1.5-4.3-2.8-1.1-1.3-1.8-3.1-2.3-5.3-.5-2.2-.7-5-.7-8.3s.5-7.7,1.4-10.2c.9-2.5,2.5-4.3,4.7-5.4,2.2-1.1,5.1-1.6,8.7-1.6s6.3.3,8.3.9c2,.6,3.4,1.6,4.2,3.1.8,1.5,1.2,3.5,1.2,6.2s-.3,4.1-.8,5.4c-.5,1.4-1.5,2.5-2.9,3.2-1.4.7-3.4,1.3-6,1.6-2.6.3-6,.4-10.2.4h-2v-4.8h9.2c2.1,0,3.5-.3,4.2-.8s1.1-1.5,1.1-2.9v-6h-7.3c-2,0-3.4.2-4.2.7-.7.5-1.1,1.4-1.1,2.8v17.7c.9.2,1.8.4,2.8.5,1,.1,2.2.2,3.7.2s3.6-.1,5.3-.4c1.8-.3,3.8-.7,6.1-1.3l1.1,5.8c-1.8.7-3.9,1.2-6.3,1.5s-4.9.5-7.5.5Z"/>
  </g>
</svg>