<?xml version="1.0" encoding="UTF-8"?>
<svg id="Layer_1" xmlns="http://www.w3.org/2000/svg" version="1.1" viewBox="0 0 555.2 97.9">
  <!-- Generator: Adobe Illustrator 30.6.0, SVG Export Plug-In . SVG Version: 2.1.4 Build 109)  -->
  <defs>
    <style>
      .st0 {
        fill: #193259;
      }

      .st1 {
        fill: #051a34;
      }

      .st2 {
        fill: #36b286;
      }
    </style>
  </defs>
  <g>
    <polygon class="st0" points="73.5 91.9 51.6 90.7 67 5.5 89 6.7 73.5 91.9"/>
    <path class="st1" d="M140.5,29.6l-3.3,18.1-35.8-1.9-30,52.1-9.9-3.2-10.1-3.3,16.1-28,8.8-15.2c7.3-12.6,23.4-20.6,39.8-19.7l24.3,1.3v-.2Z"/>
    <path class="st2" d="M89.1,6.5l-16.3,28.3-8.6,14.9c-7.3,12.6-23.4,20.6-39.8,19.7l-24.4-1.3,3.3-18.1,35.9,1.9L69.1,0l19.9,6.5h0Z"/>
  </g>
  <g>
    <path class="st0" d="M181,74.2c-1.7.7-3.5,1.1-5.4,1.4-1.9.3-4.1.4-6.7.4s-6.1-.4-8.2-1.1c-2.1-.7-3.8-1.9-5.1-3.7-1.2-1.7-2.1-4.1-2.6-7s-.8-6.6-.8-11,.3-8.2.8-11.2c.5-2.9,1.4-5.3,2.7-7,1.3-1.7,3.1-2.9,5.3-3.6s5.2-1.1,8.7-1.1,2.2,0,3.6.2c1.3.1,2.6.3,3.9.5,1.3.2,2.3.5,3.1.8l-1.1,7c-1.1-.3-2.3-.5-3.6-.7s-2.6-.3-3.8-.5c-1.2-.1-2.2-.2-3-.2-2.6,0-4.5.3-5.7,1-1.1.7-1.7,2.1-1.7,4.3v25.2c1.2.3,2.4.5,3.7.7,1.3.2,2.6.2,4,.2,1.9,0,3.8-.2,5.8-.5,1.9-.3,3.7-.7,5.4-1.3l.8,7.1Z"/>
    <path class="st0" d="M193.8,68.6c.5,0,1,.2,1.6.2s1.2.1,1.7.2l-.5,5.8c-1,.3-2,.5-2.8.6-.9.1-1.7.2-2.5.2-2,0-3.6-.5-4.6-1.4-1-1-1.5-2.4-1.5-4.4V29.6l8.6-1v40.1Z"/>
    <path class="st0" d="M211,75.7c-3.9,0-6.7-.8-8.4-2.5s-2.6-4.4-2.6-8.2.3-4.3.8-5.8,1.5-2.6,2.9-3.4c1.4-.8,3.4-1.3,6-1.6,2.6-.3,6-.5,10.2-.5h3.4v5.1h-9.9c-2.1,0-3.5.3-4.3.8-.8.5-1.2,1.5-1.2,3v6.8h7.9c2.1,0,3.5-.3,4.3-.8.8-.5,1.1-1.5,1.1-3v-19.1c-1.5-.5-3.6-.7-6.2-.7s-3.9.1-6,.4c-2.1.3-4.2.7-6.3,1.3l-1.1-6.1c1.3-.5,2.8-.9,4.4-1.2,1.6-.3,3.3-.6,5.1-.7s3.5-.2,5.2-.2c3.3,0,5.9.3,7.9,1,2,.7,3.4,1.8,4.3,3.3.9,1.5,1.3,3.5,1.3,6v25.3h-4.1l-2.2-3.5c-1.7,1.4-3.5,2.5-5.5,3.2s-4.3,1-6.8,1Z"/>
    <path class="st0" d="M242.1,34.7c-2,0-3.3-.3-4-1-.7-.7-1-2-1-3.9s.3-3.3,1-4c.7-.7,2-1,4-1s3.2.3,3.9,1c.7.7,1,2,1,4s-.3,3.2-1,3.9c-.7.7-2,1-3.9,1ZM237.8,40.8l8.6-1.2v35.3h-8.6v-34.1Z"/>
    <path class="st0" d="M254.9,74.9v-34.9h4l2.3,3.5c1.7-1.4,3.6-2.5,5.6-3.2,2-.7,4.3-1,6.8-1s5.7.5,7.5,1.6c1.7,1.1,2.6,2.7,2.6,4.8v29.2h-8.6v-28.6h-6.6c-2,0-3.3.2-4,.7-.7.5-1.1,1.4-1.1,2.8v25h-8.6ZM275.2,74.9v-34.9l6.3,3.5c1.7-1.4,3.6-2.5,5.6-3.2s4.3-1,6.8-1,5.7.5,7.5,1.6c1.7,1.1,2.6,2.7,2.6,4.8v29.2h-8.6v-28.6h-6.6c-2,0-3.3.2-4,.7-.7.5-1.1,1.4-1.1,2.8v25h-8.5Z"/>
    <path class="st0" d="M309.9,49.8c0-3.7,1.1-6.4,3.3-8.2,2.2-1.7,5.7-2.6,10.4-2.6s4.4.1,6.4.4,4,.6,6,1.2l-1.1,6.1c-1.2-.3-2.5-.6-4-.8-1.5-.2-3-.3-4.4-.3s-2.7,0-4,.2c-1.3.1-2.4.3-3.4.5v6.9c3.9.5,7,1.1,9.4,1.6s4.3,1.3,5.7,2.2c1.3.9,2.3,1.9,2.8,3.2.5,1.3.8,2.8.8,4.7s-.5,4.7-1.5,6.4c-1,1.7-2.6,2.8-4.9,3.6-2.2.7-5.2,1.1-8.9,1.1s-4.4-.2-6.6-.6c-2.2-.4-4.4-.9-6.6-1.5l1.3-6.6c3.5,1.4,7.3,2.1,11.4,2.1s2.3,0,3.3-.2c1-.1,2.2-.3,3.5-.7v-7c-4.1-.6-7.4-1.1-9.9-1.6-2.5-.5-4.4-1.2-5.6-2.1-1.3-.8-2.1-1.9-2.6-3.2-.5-1.3-.7-2.9-.7-4.9Z"/>
    <path class="st0" d="M341.8,53.2c0-4.6.3-8.5.8-11.4.5-3,1.5-5.3,2.8-7,1.3-1.7,3.2-2.8,5.6-3.5,2.4-.7,5.5-1,9.2-1s6.7.3,9.1,1,4.3,1.8,5.6,3.5,2.3,4,2.8,7,.8,6.8.8,11.4-.3,8.4-.8,11.4c-.6,3-1.5,5.3-2.8,6.9s-3.2,2.8-5.6,3.5c-2.4.7-5.5,1-9.1,1s-6.8-.3-9.2-1c-2.4-.6-4.3-1.8-5.6-3.5-1.3-1.7-2.3-4-2.8-6.9-.5-2.9-.8-6.8-.8-11.4ZM351,68.6h12.5c2.2,0,3.8-.3,4.6-1s1.3-1.9,1.3-3.7v-26.3h-12.6c-2.2,0-3.7.3-4.5,1s-1.3,1.9-1.3,3.7v26.3Z"/>
    <path class="st0" d="M385.4,74.9v-34.9h4l2.3,3.5c1.8-1.4,3.8-2.5,5.9-3.2,2.1-.7,4.6-1,7.2-1s5.7.5,7.5,1.6c1.7,1.1,2.6,2.7,2.6,4.8v29.2h-8.6v-28.6h-7.2c-2,0-3.3.2-4,.7-.7.5-1.1,1.4-1.1,2.8v25h-8.6Z"/>
    <path class="st2" d="M437.9,38.5v36.5h-8.6v-36.5h-11.1v-7.1h30.7v7.1h-11.1Z"/>
    <path class="st2" d="M457.1,34.7c-2,0-3.3-.3-4-1-.7-.7-1-2-1-3.9s.3-3.3,1-4c.7-.7,2-1,4-1s3.2.3,3.9,1c.7.7,1,2,1,4s-.3,3.2-1,3.9c-.7.7-2,1-3.9,1ZM452.8,40.8l8.6-1.2v35.3h-8.6v-34.1Z"/>
    <path class="st2" d="M469.9,74.9v-34.9h4l2.3,3.5c1.7-1.4,3.6-2.5,5.6-3.2,2-.7,4.3-1,6.8-1s5.7.5,7.5,1.6c1.7,1.1,2.6,2.7,2.6,4.8v29.2h-8.6v-28.6h-6.6c-2,0-3.3.2-4,.7-.7.5-1.1,1.4-1.1,2.8v25h-8.6ZM490.1,74.9v-34.9l6.3,3.5c1.7-1.4,3.6-2.5,5.6-3.2s4.3-1,6.8-1,5.7.5,7.5,1.6c1.7,1.1,2.6,2.7,2.6,4.8v29.2h-8.6v-28.6h-6.6c-2,0-3.3.2-4,.7-.7.5-1.1,1.4-1.1,2.8v25h-8.5Z"/>
    <path class="st2" d="M539.7,75.7c-2.7,0-5.1-.3-7-.9-1.9-.6-3.4-1.6-4.5-3-1.1-1.4-1.9-3.2-2.4-5.6-.5-2.3-.7-5.3-.7-8.7s.5-8.1,1.5-10.8,2.6-4.6,4.9-5.7,5.4-1.7,9.2-1.7,6.7.3,8.8.9c2.1.6,3.6,1.7,4.4,3.3.9,1.6,1.3,3.7,1.3,6.5s-.3,4.3-.8,5.8c-.6,1.5-1.6,2.6-3.1,3.4s-3.6,1.3-6.3,1.6c-2.7.3-6.3.5-10.8.5h-2.1v-5.1h9.8c2.2,0,3.7-.3,4.5-.8.8-.5,1.2-1.5,1.2-3v-6.3h-7.7c-2.1,0-3.6.3-4.4.8s-1.2,1.5-1.2,3v18.7c.9.2,1.9.4,3,.5,1.1.1,2.4.2,3.9.2s3.8-.1,5.6-.4c1.9-.3,4-.7,6.5-1.3l1.1,6.1c-1.9.7-4.1,1.2-6.7,1.6-2.5.4-5.2.6-7.9.6Z"/>
  </g>
</svg>